# xmcd
#
# Track frame offsets:
#	150
#	19983
#	28944
#	46281
#	56802
#	69939
#	81924
#	94581
#	106758
#	117447
#	127800
#	139041
#	150858
#	165891
#
# Disc length: 2366 seconds
#
# Revision: 1
# Processed by: cddbd v1.5.2PL0 Copyright (c) Steve Scherf et al.
# Submitted via: audiograbber 1.83.01
#
DISCID=a7093c0e
DTITLE=Rob Gill - I'm Back
DYEAR=2012
DGENRE=Country
TTITLE0=Dreamer
TTITLE1=Rainbow Blue
TTITLE2=My Woman My Wife
TTITLE3=Gentleman Drover Jack
TTITLE4=The Wayward Wind
TTITLE5=Curley Jack
TTITLE6=Lisa
TTITLE7=Don't Come A Knockin
TTITLE8=You Can Have A Beer Mate
TTITLE9=There'll Always Ber Truckies
TTITLE10=I'll Sing Country Till I Die
TTITLE11=I Can't Stop Loving You
TTITLE12=Rolliin Stone
TTITLE13=No tears Today Judy
EXTD=Australian Country Singer
EXTT0=
EXTT1=
EXTT2=
EXTT3=
EXTT4=
EXTT5=
EXTT6=
EXTT7=
EXTT8=
EXTT9=
EXTT10=
EXTT11=
EXTT12=
EXTT13=
PLAYORDER=
